Patient4_TMGait_0pt5_02_right_30_GRF.mot
version=1
nRows=45
nColumns=19
inDegrees=no
endheader
time	F1x	F1y	F1z	M1x	M1y	M1z	F2x	F2y	F2z	M2x	M2y	M2z	EC1x	EC1y	EC1z	EC2x	EC2y	EC2z
39.11	-25.1432	775.5348	67.1192	-278.8306	-67.8532	737.3137	3.9196	0.20832	-8.9053	1.7393	6.3121	-3.9314	-0.0592	0.0182	-0.0073	-0.0462	0.0165	0.9585
39.1237	-19.8168	765.6519	66.9956	-275.1483	-66.788	726.7943	2.5658	0.76543	-5.9186	1.3989	4.1627	-2.023	-0.0592	0.0182	-0.0073	-0.0462	0.0165	0.9585
39.1374	-14.6111	755.4551	66.6887	-271.3446	-65.3309	715.0827	1.3978	1.2888	-3.4399	1.135	2.426	-0.35645	-0.0592	0.0182	-0.0073	-0.0462	0.0165	0.9585
39.1511	-9.8166	746.0619	66.1435	-267.837	-63.4897	703.2273	0.48528	1.7406	-1.5885	0.95967	1.1631	0.97141	-0.0592	0.0182	-0.0073	-0.0462	0.0165	0.9585
39.1649	-5.5474	738.4883	65.3388	-265.0139	-61.306	692.2613	-0.16621	2.0964	-0.34156	0.86239	0.33943	1.938	-0.0592	0.0182	-0.0073	-0.0462	0.0165	0.9585
39.1786	-1.8079	733.4599	64.3184	-263.1573	-58.8735	682.9768	-0.59841	2.3405	0.39873	0.81995	-0.1227	2.561	-0.0592	0.0182	-0.0073	-0.0462	0.0165	0.9585
39.1923	1.4873	731.3048	63.1364	-262.3991	-56.2769	675.7891	-0.87015	2.465	0.76042	0.80277	-0.31518	2.8815	-0.0592	0.0182	-0.0073	-0.0462	0.0165	0.9585
39.206	4.4575	731.9665	61.8612	-262.7223	-53.5962	670.755	-1.0301	2.4506	0.8603	0.77686	-0.31883	2.9243	-0.0592	0.0182	-0.0073	-0.0462	0.0165	0.9585
39.2197	7.2523	735.0967	60.5313	-263.9949	-50.8634	667.6448	-1.1324	2.2711	0.80229	0.70933	-0.20451	2.7055	-0.0592	0.0182	-0.0073	-0.0462	0.0165	0.9585
39.2334	10.0171	740.1414	59.1791	-265.9995	-48.0939	666.0323	-1.2041	1.8646	0.65508	0.56233	-0.021715	2.1966	-0.0592	0.0182	-0.0073	-0.0462	0.0165	0.9585
39.2471	12.8535	746.3979	57.8189	-268.456	-45.286	665.3711	-1.2621	1.1563	0.47639	0.29884	0.18117	1.3532	-0.0592	0.0182	-0.0073	-0.0462	0.0165	0.9585
39.2609	15.8271	753.0571	56.485	-271.0394	-42.4573	665.0209	-1.3068	0.08033	0.29734	-0.11188	0.37003	0.12559	-0.0592	0.0182	-0.0073	-0.0462	0.0165	0.9585
39.2746	18.94	759.2985	55.218	-273.4151	-39.6442	664.3548	-1.3071	-1.3989	0.1518	-0.68602	0.49711	-1.5207	-0.0592	0.0182	-0.0073	-0.0462	0.0165	0.9585
39.2883	22.1736	764.3429	54.0812	-275.2641	-36.914	662.7903	-1.2141	-3.2449	0.06088	-1.4106	0.52248	-3.546	-0.0592	0.0182	-0.0073	-0.0462	0.0165	0.9585
39.302	25.4866	767.5179	53.1441	-276.3121	-34.3445	659.8495	-0.94403	-5.3032	0.054499	-2.2223	0.38715	-5.7898	-0.0592	0.0182	-0.0073	-0.0462	0.0165	0.9585
39.3157	28.834	768.3388	52.484	-276.3562	-32.0242	655.2116	-0.39368	-7.2171	0.16182	-2.9768	0.024065	-7.8687	-0.0592	0.0182	-0.0073	-0.0462	0.0165	0.9585
39.3294	32.1865	766.538	52.1702	-275.2861	-30.0335	648.7254	0.54958	-8.372	0.42529	-3.4252	-0.65234	-9.1248	-0.0592	0.0182	-0.0073	-0.0462	0.0165	0.9585
39.3431	35.5174	762.1373	52.2513	-273.1111	-28.4348	640.4658	1.9948	-7.8221	0.88349	-3.1856	-1.7258	-8.5526	-0.0592	0.0182	-0.0073	-0.0462	0.0165	0.9585
39.3569	38.813	755.4461	52.7352	-269.9613	-27.249	630.7151	3.9984	-4.2442	1.5673	-1.7257	-3.2479	-4.7532	-0.0592	0.0182	-0.0073	-0.0462	0.0165	0.9585
39.3706	42.0329	746.9463	53.5779	-266.0456	-26.454	619.881	6.5198	4.0298	2.4736	1.626	-5.191	4.0398	-0.0592	0.0182	-0.0073	-0.0462	0.0165	0.9585
39.3843	45.0947	737.089	54.6604	-261.5729	-25.9758	608.3379	9.3404	18.8712	3.5509	7.6212	-7.3984	19.8223	-0.0592	0.0182	-0.0073	-0.0462	0.0165	0.9585
39.398	47.8592	726.0194	55.7915	-256.6488	-25.699	596.2043	11.9765	42.0373	4.6594	16.9634	-9.5115	44.473	-0.0592	0.0182	-0.0073	-0.0462	0.0165	0.9585
39.4117	50.1194	713.3657	56.7198	-251.1954	-25.4864	583.1935	13.5819	74.6342	5.5421	30.0901	-10.909	79.1819	-0.0592	0.0182	-0.0073	-0.0462	0.0165	0.9585
39.4254	51.641	698.1637	57.1539	-244.9236	-25.18	568.54	12.978	116.4197	5.8766	46.8915	-10.7755	123.7106	-0.0592	0.0182	-0.0073	-0.0462	0.0165	0.9585
39.4391	52.2169	679.0179	56.8132	-237.3887	-24.6268	551.1399	9.124	165.0199	5.2692	66.3994	-8.2886	175.5295	-0.0592	0.0182	-0.0073	-0.0462	0.0165	0.9585
39.4529	51.7217	654.5221	55.46	-228.1396	-23.6886	529.8671	2.283	215.8264	3.2623	86.741	-3.1002	229.686	-0.0592	0.0182	-0.0073	-0.0462	0.0165	0.9585
39.4666	50.163	623.7746	53.0018	-216.8929	-22.3077	503.9604	-5.8386	263.6591	-0.36252	105.8223	4.2804	280.4971	-0.0592	0.0182	-0.0073	-0.0462	0.0165	0.9585
39.4803	47.6814	586.7623	49.5136	-203.6578	-20.5026	473.3426	-13.6861	305.5579	-5.0966	122.4728	12.6421	324.5566	-0.0592	0.0182	-0.0073	-0.0462	0.0165	0.9585
39.494	44.4954	544.2135	45.2728	-188.6769	-18.4132	438.5068	-20.4719	341.8453	-10.3669	136.8437	21.0384	362.0605	-0.0592	0.0182	-0.0073	-0.0462	0.0165	0.9585
39.5077	40.7959	497.2279	40.606	-172.2992	-16.2168	400.2735	-25.9324	374.6665	-15.4416	149.8352	28.6027	395.2453	-0.0592	0.0182	-0.0073	-0.0462	0.0165	0.9585
39.5214	36.7131	447.0503	35.7939	-154.9145	-14.071	359.6161	-30.0722	406.3845	-19.8728	162.4184	34.8816	426.6362	-0.0592	0.0182	-0.0073	-0.0462	0.0165	0.9585
39.5351	32.3115	394.9732	31.0079	-136.9285	-12.0681	317.5597	-32.9314	438.7914	-23.4214	175.3119	39.6769	458.1286	-0.0592	0.0182	-0.0073	-0.0462	0.0165	0.9585
39.5489	27.5924	342.2424	26.3828	-118.735	-10.2957	275.1104	-34.6451	472.8981	-26.2845	188.8815	43.2619	490.8417	-0.0592	0.0182	-0.0073	-0.0462	0.0165	0.9585
39.5626	22.5344	290.0637	22.0305	-100.7219	-8.8406	233.2308	-35.4658	509.002	-28.8422	203.1776	46.1394	525.1825	-0.0592	0.0182	-0.0073	-0.0462	0.0165	0.9585
39.5763	17.1311	239.657	18.0721	-83.2916	-7.7964	192.8886	-35.7558	546.716	-31.6548	217.9626	49.0203	560.8745	-0.0592	0.0182	-0.0073	-0.0462	0.0165	0.9585
39.59	11.5018	192.3179	14.6115	-66.8832	-7.2016	155.0838	-35.9737	585.2406	-35.1675	232.8437	52.524	597.2288	-0.0592	0.0182	-0.0073	-0.0462	0.0165	0.9585
39.6037	5.9317	149.3391	11.7099	-51.9501	-7.0043	120.7958	-36.5058	623.6593	-39.5952	247.4151	57.0021	633.3937	-0.0592	0.0182	-0.0073	-0.0462	0.0165	0.9585
39.6174	0.84495	111.7621	9.3512	-38.8698	-7.0357	90.8035	-37.5446	661.1062	-44.7955	261.3324	62.3738	668.5307	-0.0592	0.0182	-0.0073	-0.0462	0.0165	0.9585
39.6311	-3.3193	80.1304	7.4439	-27.8524	-7.0649	65.4956	-39.0254	696.6117	-50.3376	274.2528	68.1801	701.6492	-0.0592	0.0182	-0.0073	-0.0462	0.0165	0.9585
39.6449	-6.2691	54.4901	5.8627	-18.9268	-6.893	44.8964	-40.7214	728.9723	-55.6952	285.7676	73.8117	731.4922	-0.0592	0.0182	-0.0073	-0.0462	0.0165	0.9585
39.6586	-7.8494	34.5106	4.502	-11.9797	-6.3909	28.7528	-42.3447	756.7776	-60.3921	295.4	78.6918	756.5935	-0.0592	0.0182	-0.0073	-0.0462	0.0165	0.9585
39.6723	-8.0656	19.6216	3.2816	-6.8098	-5.5049	16.6443	-43.5953	778.6043	-64.1243	302.6697	82.4117	775.4817	-0.0592	0.0182	-0.0073	-0.0462	0.0165	0.9585
39.686	-7.1677	9.1441	2.1842	-3.1773	-4.3157	8.0632	-44.2137	793.3629	-66.708	307.2216	84.7013	787.0426	-0.0592	0.0182	-0.0073	-0.0462	0.0165	0.9585
39.6997	-5.6745	2.3917	1.265	-0.83894	-3.0551	2.4815	-43.9877	800.5739	-68.0661	308.9306	85.4179	790.7875	-0.0592	0.0182	-0.0073	-0.0462	0.0165	0.9585
39.7134	-4.0728	-1.4171	0.58685	0.47998	-1.9492	-0.69726	-42.795	800.5684	-68.194	307.9751	84.5292	787.065	-0.0592	0.0182	-0.0073	-0.0462	0.0165	0.9585
